<svg id="tiktok-app-icon" xmlns="http://www.w3.org/2000/svg" width="41.191" height="41" viewBox="0 0 41.191 41">
  <path id="Path_5408" data-name="Path 5408" d="M9.3,0H31.889a9.329,9.329,0,0,1,9.3,9.3V31.7a9.329,9.329,0,0,1-9.3,9.3H9.3A9.329,9.329,0,0,1,0,31.7V9.3A9.329,9.329,0,0,1,9.3,0Z" fill="#160c1a" fill-rule="evenodd"/>
  <path id="Path_5409" data-name="Path 5409" d="M39.723,15.06c.5,4.267,3.057,7.277,7.184,7.546v4.046h0V23.216c-4.153-.265-6.53-2.812-7.039-7.076H35.509V34.09c.634,8.082-5.662,8.323-8.072,5.26,2.809,1.767,7.4.617,6.852-6.336V15.06ZM27.95,44.824A9.289,9.289,0,0,1,21.9,40.67c-3.211-5.253-.315-13.818,9-14.7v1.264c-8.652,1.378-9.52,10.653-7.123,14.515a7.412,7.412,0,0,0,4.177,3.074Z" transform="translate(-13.72 -10.012)" fill="#26f4ee" fill-rule="evenodd"/>
  <path id="Path_5410" data-name="Path 5410" d="M52.053,19.06a9.727,9.727,0,0,0,2.658,5.963c-2.085-1.076-3.332-3.121-3.728-5.963Zm5.913,7.69a7.171,7.171,0,0,0,1.1.151v4.784c-2.4.238-4.5-.553-6.949-2.011l.375,8.206c0,2.648,0,3.858-1.411,6.3-3.466,5.94-9.939,5.937-13.774,2.554,5,2.869,13.724.623,13.707-9.125V28.64c2.447,1.472,4.549,2.259,6.949,2.011ZM41.959,30.206a14.924,14.924,0,0,1,1.582-.238V35.03c-2.011.335-3.3.952-3.9,2.1a4.533,4.533,0,0,0,2.414,6.7,4.558,4.558,0,0,1-3.808-6.956c.6-1.146,1.676-1.763,3.711-2.1Z" transform="translate(-24.803 -12.671)" fill="#fb2c53" fill-rule="evenodd"/>
  <path id="Path_5411" data-name="Path 5411" d="M43.81,18.25c.5,4.274,2.879,6.815,7.016,7.08v4.8c-2.4.235-4.5-.553-6.949-2.011v8.954C43.9,48.775,31.307,49.676,27.72,43.86,25.33,40,26.2,30.723,34.833,29.349V34.22c-2.011.335-3.111.952-3.711,2.1-3.687,7.08,9.212,11.293,8.32-.114V18.25Z" transform="translate(-17.663 -12.132)" fill="#fff" fill-rule="evenodd"/>
</svg>
