<svg xmlns="http://www.w3.org/2000/svg" width="17.693" height="20.22" viewBox="0 0 17.693 20.22">
  <path id="Path_176" data-name="Path 176" d="M80.165,6.321a6.319,6.319,0,1,0-10.426,4.8A8.838,8.838,0,0,0,65,18.959a1.264,1.264,0,1,0,2.528,0,6.319,6.319,0,0,1,12.638,0,1.264,1.264,0,1,0,2.528,0,8.84,8.84,0,0,0-4.739-7.835A6.3,6.3,0,0,0,80.165,6.321Zm-6.319,3.791a3.791,3.791,0,1,1,3.791-3.791,3.791,3.791,0,0,1-3.791,3.791" transform="translate(-65 -0.002)" fill="#001219" fill-rule="evenodd"/>
</svg>
