<svg xmlns="http://www.w3.org/2000/svg" width="18.934" height="18.934" viewBox="0 0 18.934 18.934">
  <path id="Icon_ionic-md-help-circle" data-name="Icon ionic-md-help-circle" d="M12.842,3.375a9.467,9.467,0,1,0,9.467,9.467A9.471,9.471,0,0,0,12.842,3.375ZM13.8,18.531H11.886V16.619H13.8Zm-.009-2.867H11.9c0-3.049,2.84-2.831,2.84-4.724a1.9,1.9,0,0,0-1.893-1.9,1.921,1.921,0,0,0-1.893,1.889H9.055a3.787,3.787,0,0,1,7.573,0C16.629,13.3,13.788,13.57,13.788,15.664Z" transform="translate(-3.375 -3.375)"/>
</svg>
