<svg xmlns="http://www.w3.org/2000/svg" width="15.24" height="17.135" viewBox="0 0 15.24 17.135">
  <path id="Path_321" data-name="Path 321" d="M295.5,57.287h-.725a1.089,1.089,0,0,0-1.089,1.089l0,.027a1.42,1.42,0,0,1-1.421,1.392h-6.592a1.42,1.42,0,0,1-1.421-1.419h0a1.089,1.089,0,0,0-1.089-1.089h-.725a1.089,1.089,0,0,0-1.089,1.089V73.333a1.089,1.089,0,0,0,1.089,1.089H295.5a1.089,1.089,0,0,0,1.089-1.089V58.376a1.089,1.089,0,0,0-1.089-1.089m-4.354,11.692H286.79a1.088,1.088,0,1,1,0-2.177h4.354a1.088,1.088,0,1,1,0,2.177m0-4.353H286.79a1.088,1.088,0,1,1,0-2.177h4.354a1.088,1.088,0,1,1,0,2.177" transform="translate(-281.346 -57.287)" fill="#001219" fill-rule="evenodd"/>
</svg>
