<svg xmlns="http://www.w3.org/2000/svg" width="15.383" height="18.933" viewBox="0 0 15.383 18.933">
  <path id="Path_77" data-name="Path 77" d="M14.017,658.934H3.367A2.365,2.365,0,0,1,1,656.558V642.377A2.373,2.373,0,0,1,3.367,640h7.692a2.8,2.8,0,0,1,1.846.769l2.71,2.706a2.838,2.838,0,0,1,.769,1.851v11.24a2.359,2.359,0,0,1-2.367,2.367M11.65,642.857v1.877h1.881Zm2.367,4.243H11.65a2.366,2.366,0,0,1-2.367-2.367v-2.367c-2.272,0-5.917,0-5.917.007v14.193h10.65Zm-8.283-2.367H6.917a1.183,1.183,0,1,1,0,2.367H5.733a1.183,1.183,0,1,1,0-2.367m0,3.55H11.65a1.183,1.183,0,1,1,0,2.367H5.733a1.183,1.183,0,1,1,0-2.367m0,3.55H11.65a1.183,1.183,0,1,1,0,2.367H5.733a1.183,1.183,0,1,1,0-2.367" transform="translate(-1 -640.001)" fill-rule="evenodd"/>
</svg>
