<svg xmlns="http://www.w3.org/2000/svg" width="15.997" height="14.998" viewBox="0 0 15.997 14.998">
  <path id="Path_156" data-name="Path 156" d="M74.283,142.658c-.447.407-.8.71-1.01.885a2,2,0,0,1-2.552,0c-.21-.175-.562-.48-1.01-.886-.74-.677-1.483-1.4-2.18-2.154a22.324,22.324,0,0,1-1.994-2.443A7.224,7.224,0,0,1,64,134.047a4.849,4.849,0,0,1,1.44-3.635,4.926,4.926,0,0,1,6.557-.3,4.922,4.922,0,0,1,6.558.3,4.848,4.848,0,0,1,1.436,3.62,7.2,7.2,0,0,1-1.532,4.023,21.946,21.946,0,0,1-2,2.45c-.7.75-1.438,1.477-2.18,2.154Z" transform="translate(-64 -129.004)" fill="#511523" fill-rule="evenodd"/>
</svg>
