<svg id="Group_23" data-name="Group 23" xmlns="http://www.w3.org/2000/svg" width="23.557" height="22.766" viewBox="0 0 23.557 22.766">
  <path id="Path_70" data-name="Path 70" d="M135.231,71.5l-2.593-3.012a2.224,2.224,0,0,1-.651-1.573V64.351a8.368,8.368,0,0,0-7.967-8.111c-4.411-.133-8.493,3.4-8.493,7.785v2.889a2.224,2.224,0,0,1-.651,1.573L112.329,71.5a1.114,1.114,0,0,0,.788,1.9h21.328a1.113,1.113,0,0,0,.786-1.9" transform="translate(-112.001 -56.236)" fill="#ee7d90"/>
  <path id="Path_71" data-name="Path 71" d="M116.45,67.781a4.43,4.43,0,0,0,8.586,0Z" transform="translate(-108.964 -48.352)" fill="#ee7d90"/>
</svg>
