<svg xmlns="http://www.w3.org/2000/svg" width="14.953" height="18.933" viewBox="0 0 14.953 18.933">
  <path id="Path_173" data-name="Path 173" d="M182.255,0H171.64a2.17,2.17,0,0,0-2.169,2.169V16.392a1.024,1.024,0,0,0,.292.715l1.5,1.528a.984.984,0,0,0,1.409,0l1.082-1.106a.984.984,0,0,1,1.409,0l1.082,1.106a.984.984,0,0,0,1.409,0l1.082-1.106a.984.984,0,0,1,1.409,0l1.082,1.106a.985.985,0,0,0,1.411,0l1.492-1.524a1.04,1.04,0,0,0,.295-.724V2.8l0-.016V2.169A2.169,2.169,0,0,0,182.255,0M173.3,4.735h5.631a1,1,0,1,1,0,1.991H173.3a1,1,0,1,1,0-1.991m0,3.635h2.879a1,1,0,0,1,0,1.991H173.3a1,1,0,1,1,0-1.991" transform="translate(-169.471)" fill="#001219"/>
</svg>
