<svg xmlns="http://www.w3.org/2000/svg" width="15.383" height="14.284" viewBox="0 0 15.383 14.284">
  <path id="Path_175" data-name="Path 175" d="M69.845,3.563A3.063,3.063,0,0,0,66.782.5H59.063A3.063,3.063,0,0,0,56,3.563v9.155a2.082,2.082,0,0,0,2.1,2.066H69.985a1.387,1.387,0,0,0,1.4-1.377V5.094a1.651,1.651,0,0,0-1.538-1.531m-12.306,0V3.314a1.282,1.282,0,0,1,1.282-1.282h8.2a1.281,1.281,0,0,1,1.281,1.282v.249Zm9.532,7.029A1.519,1.519,0,1,1,68.6,9.074a1.521,1.521,0,0,1-1.525,1.519" transform="translate(-56 -0.5)" fill="#001219"/>
</svg>
