<svg xmlns="http://www.w3.org/2000/svg" xmlns:xlink="http://www.w3.org/1999/xlink" width="646.149" height="114.099" viewBox="0 0 646.149 114.099">
  <defs>
    <clipPath id="clip-path">
      <circle id="Ellipse_1" data-name="Ellipse 1" cx="27.881" cy="27.881" r="27.881" fill="none" stroke="red" stroke-width="1"/>
    </clipPath>
    <clipPath id="clip-path-2">
      <rect id="Rectangle_1" data-name="Rectangle 1" width="117.547" height="105.865" fill="none"/>
    </clipPath>
    <clipPath id="clip-path-3">
      <circle id="Ellipse_2" data-name="Ellipse 2" cx="27.881" cy="27.881" r="27.881" transform="translate(0)" fill="none" stroke="red" stroke-width="1"/>
    </clipPath>
    <clipPath id="clip-path-5">
      <rect id="Rectangle_3" data-name="Rectangle 3" width="117.65" height="46.197" fill="none"/>
    </clipPath>
  </defs>
  <g id="Group_12" data-name="Group 12" transform="translate(-19.5 -152.138)">
    <path id="Path_12" data-name="Path 12" d="M55.048-256.06c-6.079,0-9.848,4.012-9.848,10.334,0,6.444,2.31,8.51,10.7,9.483a345.8,345.8,0,0,1,52.278,10.212,18.665,18.665,0,0,0,6.2,1.094c5.228,0,8.632-4.62,8.632-11.671,0-6.2-3.283-8.146-22.37-12.158C84.1-252.291,58.695-256.06,55.048-256.06ZM45.808-186.4c-6.687,0-9.848,4.863-9.848,11.671,0,3.89,1.824,6.93,4.985,8.146,1.337.486,2.918.851,9.726,2.31,15.562,3.526,22.37,5.228,32.339,8.267,9.361,2.8,20.425,6.565,27.476,9.361,4.255,1.7,5.957,2.067,8.632,2.067,5.106,0,9.118-5.228,9.118-11.915s-3.647-8.875-26.139-15.927C83.375-178.251,50.549-186.4,45.808-186.4Zm9.483-35.379c-5.836,0-9.6,4.255-9.6,10.7,0,5.714,2.675,8.146,9.848,9.24,21.033,3.039,42.552,9.483,44.132,9.848,3.4,1.094,4.741,1.337,6.444,1.337,5.349,0,8.754-4.377,8.754-11.185,0-5.593-2.675-7.9-11.428-10.212-9.361-2.432-15.076-4.012-22.856-5.593C79.849-217.763,59.546-221.775,55.291-221.775Zm110.149-1.945c0,25.41-3.647,40.242-12.887,51.427-5.714,7.173-6.322,8.024-6.322,11.063,0,5.714,5.349,10.577,11.671,10.577,6.444,0,11.185-6.687,16.291-16.413,10.942-20.3,10.942-40.971,10.942-61.275v-13.252c0-4.985-3.526-7.9-9.848-7.9s-9.848,2.918-9.848,7.9Zm52.278-20.79c0-5.106-3.526-7.9-9.969-7.9s-9.969,2.8-9.969,7.9v76.593c0,11.915,3.647,16.656,12.766,16.656a21.34,21.34,0,0,0,11.064-3.283c26.261-14.832,40.607-45.713,40.607-53.98,0-5.228-5.349-9.361-11.915-9.361-3.89,0-6.2,1.945-8.024,6.565-3.526,9-8.632,22.005-24.559,35.136Z" transform="translate(-16.46 408.198)" fill="#511523"/>
    <path id="Path_11" data-name="Path 11" d="M115.173-207.04c1.722,0,2.3.574,2.3,2.3v53.232c0,2.009-.574,2.726-2.583,2.726H41.423c-5.883,0-9.183,4.161-9.183,11.479,0,7.461,3.3,11.622,9.183,11.622h83.22c11.766,0,16.787-4.591,16.787-15.64V-214.07c0-11.048-5.022-15.64-16.787-15.64H43.432c-5.739,0-9.039,4.161-9.039,11.335s3.3,11.335,9.039,11.335Zm63.419-22.67c-5.739,0-9.039,4.018-9.039,11.192,0,7.318,3.3,11.335,9.039,11.335h82.072c2.726,0,3.444.287,3.444,1.291,0,2.583-17.935,24.249-33.288,34.149-17.218-15.783-21.379-19.657-26.4-19.657-6.457,0-13.344,6.457-13.344,12.77,0,3.874,1.435,5.883,8.178,11.479,11.909,10.044,24.679,22.957,40.319,43.475,3.013,4.161,5.309,5.452,8.609,5.452,7.174,0,14.348-6.17,14.348-12.483,0-6.17-6.744-14.061-16.07-24.536,22.383-15.783,49.645-47.493,49.645-61.984A12.1,12.1,0,0,0,290.8-227.7c-2.439-1.578-4.735-2.009-11.766-2.009Z" transform="translate(369.545 381.848)" fill="#511523"/>
    <g id="Group_13" data-name="Group 13" transform="translate(266.574 158.861)">
      <rect id="Rectangle_4" data-name="Rectangle 4" width="99" height="93" rx="15" transform="translate(9.426 8.108)" fill="#f7ecee"/>
      <g id="Group_8" data-name="Group 8" transform="translate(0 0)">
        <g id="Group_5" data-name="Group 5" transform="translate(0 51.614)">
          <g id="Mask_Group_1" data-name="Mask Group 1" clip-path="url(#clip-path)">
            <g id="Group_2" data-name="Group 2" transform="translate(-0.105 -34.845)">
              <g id="Group_1" data-name="Group 1" clip-path="url(#clip-path-2)">
                <path id="Path_1" data-name="Path 1" d="M47.61,82.448a28.161,28.161,0,0,0,8.083-19.529c-.027-17.035-16.371-31.886-35.081-26.872a27.776,27.776,0,0,0-9.725,4.8V12.877a106.475,106.475,0,0,1,16.652,7.7c6.23,3.54,11.617-5.929,5.377-9.475A111.812,111.812,0,0,0,6.855.189,5.446,5.446,0,0,0,0,5.869V62.005C-.17,83.2,20.215,95.9,38.116,88.758c5.942,4.971,11.031,9.98,16.689,15.386a5.434,5.434,0,0,0,7.937,0C68.4,98.738,73.488,93.729,79.431,88.758c17.9,7.144,38.287-5.56,38.112-26.753V5.869a5.446,5.446,0,0,0-6.85-5.679A111.821,111.821,0,0,0,84.63,11.106c-6.24,3.545-.853,13.015,5.377,9.475a106.475,106.475,0,0,1,16.652-7.7V40.842a27.766,27.766,0,0,0-9.725-4.8c-23.752-6.364-43.683,19.28-31.28,40.764a28,28,0,0,0,4.282,5.638c-3.858,3.195-7.471,6.747-11.163,10.158C55.081,89.2,51.469,85.643,47.61,82.448Z" transform="translate(0 -0.001)" fill="#ec5b70"/>
                <path id="Path_2" data-name="Path 2" d="M231.867,131.785a5.437,5.437,0,0,0,3.969-1.714,115.074,115.074,0,0,1,13.641-12.312,5.45,5.45,0,1,0-6.615-8.664l-10.994,9.487L220.873,109.1a5.45,5.45,0,0,0-6.615,8.664A115.057,115.057,0,0,1,227.9,130.072a5.437,5.437,0,0,0,3.969,1.714" transform="translate(-173.094 -88.112)" fill="#3c1c11"/>
                <path id="Path_3" data-name="Path 3" d="M90.677,275.336c-7.332,12.7-27.025,10.678-30.982-4.092a17.489,17.489,0,0,1-.608-4.379c-.115-12.464,13.778-21.338,25.39-14.652a16.945,16.945,0,0,1,6.2,23.124Z" transform="translate(-48.217 -203.945)" fill="#fff"/>
                <path id="Path_4" data-name="Path 4" d="M111.447,298.175c-4.811,8.335-17.734,7.007-20.331-2.686a11.485,11.485,0,0,1-.4-2.874,11.109,11.109,0,1,1,20.73,5.559Z" transform="translate(-74.028 -229.713)" fill="#ec5b70"/>
                <path id="Path_5" data-name="Path 5" d="M108.918,293.733A3.021,3.021,0,0,1,103.4,293a3.125,3.125,0,0,1-.108-.78,3.017,3.017,0,1,1,5.629,1.51Z" transform="translate(-84.287 -236.002)" fill="#fff"/>
              </g>
            </g>
          </g>
          <g id="Mask_Group_2" data-name="Mask Group 2" transform="translate(61.889)" clip-path="url(#clip-path-3)">
            <g id="Group_4" data-name="Group 4" transform="translate(-0.105 -34.845)">
              <g id="Group_3" data-name="Group 3" clip-path="url(#clip-path-2)">
                <path id="Path_6" data-name="Path 6" d="M47.61,82.448a28.161,28.161,0,0,0,8.083-19.529c-.027-17.035-16.371-31.886-35.081-26.872a27.776,27.776,0,0,0-9.725,4.8V12.877a106.475,106.475,0,0,1,16.652,7.7c6.23,3.54,11.617-5.929,5.377-9.475A111.812,111.812,0,0,0,6.855.189,5.446,5.446,0,0,0,0,5.869V62.005C-.17,83.2,20.215,95.9,38.116,88.758c5.942,4.971,11.031,9.98,16.689,15.386a5.434,5.434,0,0,0,7.937,0C68.4,98.738,73.488,93.729,79.431,88.758c17.9,7.144,38.287-5.56,38.112-26.753V5.869a5.446,5.446,0,0,0-6.85-5.679A111.821,111.821,0,0,0,84.63,11.106c-6.24,3.545-.853,13.015,5.377,9.475a106.475,106.475,0,0,1,16.652-7.7V40.842a27.766,27.766,0,0,0-9.725-4.8c-23.752-6.364-43.683,19.28-31.28,40.764a28,28,0,0,0,4.282,5.638c-3.858,3.195-7.471,6.747-11.163,10.158C55.081,89.2,51.469,85.643,47.61,82.448Z" transform="translate(0 -0.001)" fill="#ec5b70"/>
                <path id="Path_7" data-name="Path 7" d="M231.867,131.785a5.437,5.437,0,0,0,3.969-1.714,115.074,115.074,0,0,1,13.641-12.312,5.45,5.45,0,1,0-6.615-8.664l-10.994,9.487L220.873,109.1a5.45,5.45,0,0,0-6.615,8.664A115.057,115.057,0,0,1,227.9,130.072a5.437,5.437,0,0,0,3.969,1.714" transform="translate(-173.094 -88.112)" fill="#3c1c11"/>
                <path id="Path_8" data-name="Path 8" d="M90.677,275.336c-7.332,12.7-27.025,10.678-30.982-4.092a17.489,17.489,0,0,1-.608-4.379c-.115-12.464,13.778-21.338,25.39-14.652a16.945,16.945,0,0,1,6.2,23.124Z" transform="translate(-48.217 -203.945)" fill="#fff"/>
                <path id="Path_9" data-name="Path 9" d="M111.447,298.175c-4.811,8.335-17.734,7.007-20.331-2.686a11.485,11.485,0,0,1-.4-2.874,11.109,11.109,0,1,1,20.73,5.559Z" transform="translate(-74.028 -229.713)" fill="#ec5b70"/>
                <path id="Path_10" data-name="Path 10" d="M108.918,293.733A3.021,3.021,0,0,1,103.4,293a3.125,3.125,0,0,1-.108-.78,3.017,3.017,0,1,1,5.629,1.51Z" transform="translate(-84.287 -236.002)" fill="#fff"/>
              </g>
            </g>
          </g>
        </g>
        <g id="Group_7" data-name="Group 7" transform="translate(0 0)">
          <g id="Group_6" data-name="Group 6" transform="translate(0 0)" clip-path="url(#clip-path-5)">
            <path id="Path_13" data-name="Path 13" d="M26.7,0H49.114l6.858,36.3c-1.191,5.619-7.289,9.9-14.636,9.9S27.889,41.916,26.7,36.3Z" transform="translate(32.062 -0.001)" fill="#fbe674" fill-rule="evenodd"/>
            <path id="Path_14" data-name="Path 14" d="M20.07,0H33.63L29.486,36.3c-1.193,5.619-7.292,9.9-14.638,9.9C6.647,46.2,0,40.867,0,34.288a9.751,9.751,0,0,1,.095-1.347c-.086.04-.068-.1.081-.5l0,0a10.21,10.21,0,0,1,1.169-3.112L10.14,5.914C11.48,2.344,15.424,0,20.07,0" transform="translate(0 -0.001)" fill="#fbe674" fill-rule="evenodd"/>
            <path id="Path_15" data-name="Path 15" d="M17.541,0,14.185,29.4,13.4,36.3c1.191,5.619,7.289,9.9,14.638,9.9s13.445-4.281,14.636-9.9V0Z" transform="translate(16.089 -0.001)" fill="#ed6d92" fill-rule="evenodd"/>
            <path id="Path_16" data-name="Path 16" d="M36.883,0l5.555,29.4,1.3,6.9a10.83,10.83,0,0,0,2.8,5.185A16.3,16.3,0,0,0,58.377,46.2c8.086,0,14.662-5.183,14.845-11.632.167.247.189.211,0-.277,0-2.9-8.608-24.087-10.14-28.374C61.806,2.331,57.8,0,53.157,0Z" transform="translate(44.293 -0.001)" fill="#ed6d92" fill-rule="evenodd"/>
          </g>
        </g>
      </g>
    </g>
  </g>
</svg>
