<svg xmlns="http://www.w3.org/2000/svg" width="26" height="26" viewBox="0 0 26 26">
  <g id="Group_37" data-name="Group 37" transform="translate(-159 93.053)">
    <circle id="Ellipse_3" data-name="Ellipse 3" cx="13" cy="13" r="13" transform="translate(159 -93.053)" fill="#f6caa1"/>
    <g id="user-58" transform="translate(165.176 -85.857)">
      <g id="Group_28" data-name="Group 28" transform="translate(0 0)">
        <path id="Path_178" data-name="Path 178" d="M14.08,14.727H1.451A.451.451,0,0,1,1,14.276V3.451A.451.451,0,0,1,1.451,3H14.08a.451.451,0,0,1,.451.451V14.276A.451.451,0,0,1,14.08,14.727ZM1.9,13.824H13.629V3.9H1.9Z" transform="translate(-1 -3)" fill="#511523"/>
      </g>
      <g id="Group_29" data-name="Group 29" transform="translate(8.209 2.075)">
        <path id="Path_179" data-name="Path 179" d="M22.71,8.5H19.651a.451.451,0,1,1,0-.9H22.71a.451.451,0,0,1,0,.9Z" transform="translate(-19.2 -7.6)" fill="#511523"/>
      </g>
      <g id="Group_30" data-name="Group 30" transform="translate(8.209 3.879)">
        <path id="Path_180" data-name="Path 180" d="M21.18,12.5H19.651a.451.451,0,1,1,0-.9H21.18a.451.451,0,1,1,0,.9Z" transform="translate(-19.2 -11.6)" fill="#511523"/>
      </g>
      <g id="Group_33" data-name="Group 33" transform="translate(2.188 1.353)">
        <g id="Group_31" data-name="Group 31" transform="translate(0 4.314)">
          <path id="Path_181" data-name="Path 181" d="M12.256,20.272a.451.451,0,0,1-.451-.451V18.166a1.7,1.7,0,0,0-1.7-1.7H8.452a1.7,1.7,0,0,0-1.7,1.7v1.655a.451.451,0,0,1-.9,0V18.166a2.6,2.6,0,0,1,2.6-2.6h1.655a2.6,2.6,0,0,1,2.6,2.6v1.655A.451.451,0,0,1,12.256,20.272Z" transform="translate(-5.852 -15.565)" fill="#511523"/>
        </g>
        <g id="Group_32" data-name="Group 32" transform="translate(1.353 0)">
          <path id="Path_182" data-name="Path 182" d="M12.55,10.149H9.3A.451.451,0,0,1,8.852,9.7V8.075a2.075,2.075,0,0,1,4.149,0V9.7A.451.451,0,0,1,12.55,10.149Zm-2.8-.9H12.1V8.075a1.173,1.173,0,0,0-2.345,0Z" transform="translate(-8.852 -6)" fill="#511523"/>
        </g>
      </g>
    </g>
  </g>
</svg>
