<svg xmlns="http://www.w3.org/2000/svg" width="26" height="26" viewBox="0 0 26 26">
  <g id="Group_43" data-name="Group 43" transform="translate(-795 -216)">
    <g id="Group_42" data-name="Group 42" transform="translate(636 309.053)">
      <circle id="Ellipse_3" data-name="Ellipse 3" cx="13" cy="13" r="13" transform="translate(159 -93.053)" fill="#dbe2dc"/>
    </g>
    <path id="Path_185" data-name="Path 185" d="M391.658,335.31a7.658,7.658,0,1,1,7.658-7.658,7.658,7.658,0,0,1-7.658,7.658m0-13.4a5.743,5.743,0,1,0,5.743,5.743,5.743,5.743,0,0,0-5.743-5.743m3.829,6.7h-3.829a.956.956,0,0,1-.957-.948v-3.848a.957.957,0,0,1,1.914,0V326.7h2.872a.957.957,0,1,1,0,1.914" transform="translate(416.342 -98.653)" fill-rule="evenodd"/>
  </g>
</svg>
