<svg xmlns="http://www.w3.org/2000/svg" width="26" height="26" viewBox="0 0 26 26">
  <g id="Group_38" data-name="Group 38" transform="translate(-696 -209)">
    <g id="Group_28" data-name="Group 28" transform="translate(537 302.053)">
      <circle id="Ellipse_3" data-name="Ellipse 3" cx="13" cy="13" r="13" transform="translate(159 -93.053)" fill="#fbe6db"/>
    </g>
    <path id="Path_184" data-name="Path 184" d="M330.594,460.479a.883.883,0,0,0-.883-.883h-5.3a.883.883,0,0,0,0,1.766h5.3a.883.883,0,0,0,.883-.883m-9.712-2.649h12.36a.883.883,0,0,0,0-1.766h-12.36a.883.883,0,0,0,0,1.766m11.477-4.414a.883.883,0,0,0-.883-.883h-8.829a.883.883,0,1,0,0,1.766h8.829a.883.883,0,0,0,.883-.883m-11.477-2.649h12.36a.883.883,0,1,0,0-1.766h-12.36a.883.883,0,1,0,0,1.766" transform="translate(381.937 -232.682)" fill-rule="evenodd"/>
  </g>
</svg>
