<svg xmlns="http://www.w3.org/2000/svg" width="26" height="26" viewBox="0 0 26 26">
  <g id="Group_39" data-name="Group 39" transform="translate(-696 -209)">
    <g id="Group_28" data-name="Group 28" transform="translate(537 302.053)">
      <circle id="Ellipse_3" data-name="Ellipse 3" cx="13" cy="13" r="13" transform="translate(159 -93.053)" fill="#f5c7bd"/>
    </g>
    <path id="Path_148" data-name="Path 148" d="M579.683,143.5a1.038,1.038,0,0,1-.6-.19.992.992,0,0,1-.383-1.068L579.864,138l-3.487-2.763a.981.981,0,0,1-.33-1.084,1.013,1.013,0,0,1,.913-.69l4.485-.227,1.6-4.1a1.025,1.025,0,0,1,1.9,0l1.607,4.1,4.484.227a1.016,1.016,0,0,1,.914.69.984.984,0,0,1-.328,1.084L588.137,138l1.165,4.242a.992.992,0,0,1-.384,1.067,1.034,1.034,0,0,1-1.15.03l-3.766-2.4-3.766,2.4a1.028,1.028,0,0,1-.552.164h0Z" transform="translate(125.001 85.998)" fill="#511523" fill-rule="evenodd"/>
  </g>
</svg>
