<svg xmlns="http://www.w3.org/2000/svg" width="226.254" height="111.486" viewBox="0 0 226.254 111.486">
  <path id="Path_12" data-name="Path 12" d="M55.048-256.06c-6.079,0-9.848,4.012-9.848,10.334,0,6.444,2.31,8.51,10.7,9.483a345.8,345.8,0,0,1,52.278,10.212,18.665,18.665,0,0,0,6.2,1.094c5.228,0,8.632-4.62,8.632-11.671,0-6.2-3.283-8.146-22.37-12.158C84.1-252.291,58.695-256.06,55.048-256.06ZM45.808-186.4c-6.687,0-9.848,4.863-9.848,11.671,0,3.89,1.824,6.93,4.985,8.146,1.337.486,2.918.851,9.726,2.31,15.562,3.526,22.37,5.228,32.339,8.267,9.361,2.8,20.425,6.565,27.476,9.361,4.255,1.7,5.957,2.067,8.632,2.067,5.106,0,9.118-5.228,9.118-11.915s-3.647-8.875-26.139-15.927C83.375-178.251,50.549-186.4,45.808-186.4Zm9.483-35.379c-5.836,0-9.6,4.255-9.6,10.7,0,5.714,2.675,8.146,9.848,9.24,21.033,3.039,42.552,9.483,44.132,9.848,3.4,1.094,4.741,1.337,6.444,1.337,5.349,0,8.754-4.377,8.754-11.185,0-5.593-2.675-7.9-11.428-10.212-9.361-2.432-15.076-4.012-22.856-5.593C79.849-217.763,59.546-221.775,55.291-221.775Zm110.149-1.945c0,25.41-3.647,40.242-12.887,51.427-5.714,7.173-6.322,8.024-6.322,11.063,0,5.714,5.349,10.577,11.671,10.577,6.444,0,11.185-6.687,16.291-16.413,10.942-20.3,10.942-40.971,10.942-61.275v-13.252c0-4.985-3.526-7.9-9.848-7.9s-9.848,2.918-9.848,7.9Zm52.278-20.79c0-5.106-3.526-7.9-9.969-7.9s-9.969,2.8-9.969,7.9v76.593c0,11.915,3.647,16.656,12.766,16.656a21.34,21.34,0,0,0,11.064-3.283c26.261-14.832,40.607-45.713,40.607-53.98,0-5.228-5.349-9.361-11.915-9.361-3.89,0-6.2,1.945-8.024,6.565-3.526,9-8.632,22.005-24.559,35.136Z" transform="translate(-35.96 256.06)" fill="#511523"/>
</svg>
