<svg xmlns="http://www.w3.org/2000/svg" width="263.864" height="111.486" viewBox="0 0 263.864 111.486">
  <path id="Path_11" data-name="Path 11" d="M115.173-207.04c1.722,0,2.3.574,2.3,2.3v53.232c0,2.009-.574,2.726-2.583,2.726H41.423c-5.883,0-9.183,4.161-9.183,11.479,0,7.461,3.3,11.622,9.183,11.622h83.22c11.766,0,16.787-4.591,16.787-15.64V-214.07c0-11.048-5.022-15.64-16.787-15.64H43.432c-5.739,0-9.039,4.161-9.039,11.335s3.3,11.335,9.039,11.335Zm63.419-22.67c-5.739,0-9.039,4.018-9.039,11.192,0,7.318,3.3,11.335,9.039,11.335h82.072c2.726,0,3.444.287,3.444,1.291,0,2.583-17.935,24.249-33.288,34.149-17.218-15.783-21.379-19.657-26.4-19.657-6.457,0-13.344,6.457-13.344,12.77,0,3.874,1.435,5.883,8.178,11.479,11.909,10.044,24.679,22.957,40.319,43.475,3.013,4.161,5.309,5.452,8.609,5.452,7.174,0,14.348-6.17,14.348-12.483,0-6.17-6.744-14.061-16.07-24.536,22.383-15.783,49.645-47.493,49.645-61.984A12.1,12.1,0,0,0,290.8-227.7c-2.439-1.578-4.735-2.009-11.766-2.009Z" transform="translate(-32.24 229.71)" fill="#511523"/>
</svg>
