<svg xmlns="http://www.w3.org/2000/svg" width="51" height="50" viewBox="0 0 51 50">
  <g id="Group_6661" data-name="Group 6661" transform="translate(0.496 -0.048)">
    <rect id="Rectangle_5146" data-name="Rectangle 5146" width="51" height="50" rx="15" transform="translate(-0.496 0.048)" fill="#48a0ee"/>
    <path id="Icon_simple-twitter" data-name="Icon simple-twitter" d="M27.594,6.045a11.52,11.52,0,0,1-3.254.893A5.711,5.711,0,0,0,26.831,3.8a11.707,11.707,0,0,1-3.6,1.364,5.666,5.666,0,0,0-9.8,3.868,5.8,5.8,0,0,0,.146,1.295,16.052,16.052,0,0,1-11.682-5.9,5.555,5.555,0,0,0-.767,2.851,5.668,5.668,0,0,0,2.52,4.718,5.65,5.65,0,0,1-2.567-.71v.07a5.671,5.671,0,0,0,4.546,5.56,5.72,5.72,0,0,1-2.548.1,5.687,5.687,0,0,0,5.3,3.936,11.367,11.367,0,0,1-7.029,2.425A12.03,12.03,0,0,1,0,23.3,16.122,16.122,0,0,0,8.705,25.84,16.009,16.009,0,0,0,24.831,9.729c0-.241,0-.484-.017-.726a11.446,11.446,0,0,0,2.834-2.935l-.054-.023Z" transform="translate(11.468 10.201)" fill="#fff"/>
  </g>
</svg>
